<svg xmlns="http://www.w3.org/2000/svg" width="571.233" height="710.182" viewBox="0 0 571.233 710.182">
  <g id="Group_30" data-name="Group 30" transform="translate(374.016 89.102)" opacity="0.8">
    <path id="Path_34" data-name="Path 34" d="M-256.737-89.1c7.818,2.892,15.557,6,23.462,8.615,10.548,3.487,14.694,10.216,12.047,21.165-11.913,49.2-23.526,98.474-35.735,147.6-4.451,17.909-9.676,21.077-27.834,19.9-6.125-.4-12.218-1.3-18.343-1.637-25.943-1.439-27.11-2.855-28.512-27.811-2.541-45.213-5.636-90.389-8.187-135.6-.6-10.7.032-21.483.1-32.23Z" transform="translate(122.52 0)" fill="#f5f5f5"/>
    <path id="Path_35" data-name="Path 35" d="M-307.572,179.921c-13.518-7.688-17.568-18.209-15.308-34.282,3.607-25.685,3.777-51.84,5.71-77.774,1.531-20.575,5.428-24.241,26.178-27.525,7.509-1.19,15.262-2.361,22.217-5.216,13.112-5.387,20.962.051,25.4,11.48q18.686,48.075,36.307,96.564c3.81,10.423-.042,18.066-11.106,21.068-10.294,2.795-20.7,5.193-31.044,7.813-10.239,2.592-20.459,5.249-30.689,7.873Z" transform="translate(182.579 441.159)" fill="#f5f5f5"/>
    <path id="Path_36" data-name="Path 36" d="M-374.016,38.86c3.058-9.34,6.263-18.633,9.146-28.023,4.589-14.962,10.659-19.431,25.422-15,22.009,6.6,44.24,13.177,65.188,22.443,27.853,12.314,7.8,38.553,13.6,57.744,3.639,12.024-9.57,15.072-19.569,17.568-18.6,4.644-37.252,9.169-55.576,14.759-16.811,5.129-30.08,3.035-38.212-14.15Z" transform="translate(0 300.916)" fill="#f5f5f5"/>
    <path id="Path_37" data-name="Path 37" d="M-161.951-29.321c-3.57,6.665-5.682,11.6-8.634,15.967-26.16,38.714-52.32,77.429-78.808,115.921-10.271,14.925-14.085,15.557-30.551,8.3-9.1-4.008-18.112-8.27-27.415-11.747-12.914-4.824-14.929-13.509-11.055-25.648C-303.521,26.813-289.108-20-274.123-66.638c5.548-17.272,13.168-21.2,29.448-13.343,23.393,11.286,46.149,23.96,68.753,36.791C-170.419-40.063-166.568-34.021-161.951-29.321Z" transform="translate(194.477 18.962)" fill="#f5f5f5"/>
    <path id="Path_38" data-name="Path 38" d="M-255.174,111.685c-11.217.632-50.286-36.837-48.889-46.052.747-4.912,3.92-9.856,7.093-13.933Q-256.02-.913-214.591-53.148C-199.565-72.026-194.612-72.8-178.363-56c17.005,17.586,33.193,36.081,48.409,55.235,10.313,12.992,9.118,19.984-3.57,29.02C-170.97,54.928-208.845,81-246.623,107.2-249.69,109.333-253.278,110.707-255.174,111.685Z" transform="translate(252.55 76.259)" fill="#f5f5f5"/>
    <path id="Path_39" data-name="Path 39" d="M-257.014,100.235c-4.077-2.966-11.678-5.945-15.086-11.5-7.153-11.65-12.084-24.661-17.96-37.1-4.423-9.381-1.342-16.078,7.153-21.193,39.314-23.66,78.508-47.528,117.914-71.032,10.52-6.273,19.865-3.607,24.44,7.781q16.2,40.333,30.851,81.28c3.87,10.788-4.617,15.552-12.78,18.172-13.062,4.192-26.5,7.26-39.835,10.543C-192.73,84.679-223.184,92.012-257.014,100.235Z" transform="translate(295.992 163.284)" fill="#f5f5f5"/>
    <path id="Path_40" data-name="Path 40" d="M-127.855,88.592c-2.735,14.173-8.874,18.6-22.83,15.64-39.614-8.4-79.02-17.775-118.486-26.847a15.856,15.856,0,0,1-6.291-2.652c-18.582-14.962-6.245-35.924-9.372-53.847-2.246-12.868,12.171-15.866,22.8-17.545,25.671-4.049,51.467-7.306,77.17-11.152,12.093-1.808,24.075-4.331,36.141-6.374,18.158-3.067,25.394,2.163,27.557,20.782.876,7.545.143,15.28.143,22.927C-120.282,29.6-124.1,69.124-127.855,88.592Z" transform="translate(317.954 267.645)" fill="#f5f5f5"/>
    <path id="Path_41" data-name="Path 41" d="M-260.39,7.051c10.174,2.924,19.039,5.281,27.788,8.025,28.439,8.915,56.831,17.978,85.242,26.972,24.241,7.675,28.1,14.344,16.871,36.422a679.946,679.946,0,0,1-36.86,63.334c-9.275,14.215-14.63,14.731-28.129,4.363-28.512-21.9-56.416-44.595-84.545-67-1.79-1.421-3.339-3.145-5.027-4.7-8.417-7.753-7.485-16.986-1.73-24.9C-276.887,35.969-278.885,14.513-260.39,7.051Z" transform="translate(299.017 347.318)" fill="#f5f5f5"/>
    <path id="Path_42" data-name="Path 42" d="M-244.18,182.826c-3.3-3.062-9.141-6.226-11.553-11.092-16-32.3-31.307-64.948-46.744-97.528-3.777-7.979-2.043-14.98,4.778-20.561,10.682-8.74,21.557-17.249,32.142-26.1,7.97-6.665,15.114-5.834,22.378,1.088q40.831,38.922,81.8,77.705c7.158,6.8,9.976,15.285,1.314,21.7-24.546,18.163-49.862,35.274-74.989,52.638C-236.8,181.872-239.448,181.761-244.18,182.826Z" transform="translate(251.33 404.797)" fill="#f5f5f5"/>
    <path id="Path_43" data-name="Path 43" d="M-223.989,60.926c-6.623,36.081-12.139,67.711-18.361,99.2-2.366,11.969-10.756,16.239-22.434,12.9-28.913-8.27-55.927-20.483-79.836-39.046-9.21-7.153-9.137-14.68-2.338-23.623,17.591-23.144,34.863-46.527,52.219-69.846,6.785-9.109,14.468-12.485,25.69-6.854,10.894,5.47,23.074,8.482,33.678,14.39C-229.758,51.176-226.3,58.182-223.989,60.926Z" transform="translate(80.169 433.481)" fill="#f5f5f5"/>
    <path id="Path_44" data-name="Path 44" d="M-231.006,68.432c-1.9,3.487-3.339,8.067-6.286,11.249-20.256,21.889-40.8,43.511-61.309,65.165-7.19,7.587-15.571,8.371-21.4-.3-16.576-24.624-32.631-49.627-47.87-75.09-4.907-8.205-1.845-16.857,7.836-20.662,27.013-10.613,54.045-21.23,81.46-30.717,4.322-1.494,12.563,1.222,15.737,4.847,10.525,12.019,19.625,25.3,29.107,38.216C-232.45,62.888-232.122,65.346-231.006,68.432Z" transform="translate(13.844 385.615)" fill="#f5f5f5"/>
    <path id="Path_45" data-name="Path 45" d="M-241.464,45.519c-1.48,3.3-2.2,6.439-4.017,8.68C-255.1,66.02-264.28,78.362-275.2,88.868c-3.8,3.657-13.361,5.336-18.209,3.2-20.93-9.238-41.375-19.712-61.434-30.758-14.058-7.739-15.409-14.085-6.425-27.922,15.151-23.324,34.171-43.142,57.938-57.868,12.66-7.845,18.236-6.6,26.294,6.208,10.571,16.807,20.312,34.134,30.2,51.356C-244.6,36.954-243.239,41.326-241.464,45.519Z" transform="translate(25.561 215.731)" fill="#f5f5f5"/>
    <path id="Path_46" data-name="Path 46" d="M-279.605-35.538c10.677.577,21.483.3,32,1.914,17.346,2.647,22.217,10.248,17.867,26.746-4.082,15.492-8.237,31.03-13.633,46.094-2.163,6.028-6.978,14.519-11.895,15.529-17.014,3.5-34.582,4.843-51.993,5.428-3.51.115-8.643-6.042-10.645-10.4-8.3-18.033-15.372-36.62-23.5-54.732-5.3-11.83-2.112-19.823,10.027-22.7C-314.436-31.65-279.757-36.183-279.605-35.538Z" transform="translate(108.897 193.259)" fill="#f5f5f5"/>
    <path id="Path_47" data-name="Path 47" d="M-209.766,50.344c-2.8,3.035-5.511,8.113-9.695,10.114-15.151,7.241-30.726,13.61-46.274,19.984-8.892,3.644-15.921.8-22.42-6.323-8.182-8.966-18.352-16.239-25.782-25.717-4-5.11-7.366-14.593-5.3-19.869,6.655-17.014,15.833-33.06,24.3-49.345,5.382-10.359,14.417-12.084,23.116-5.88,25.233,18.006,46.228,40.024,59.51,68.546C-211.366,43.892-210.988,46.193-209.766,50.344Z" transform="translate(195.602 212.432)" fill="#f5f5f5"/>
    <path id="Path_48" data-name="Path 48" d="M-226.793,33.1c-.129,15.4-7.2,39.346-21.682,60.843-9.533,14.155-14.316,14.888-27.853,5.387-5-3.51-9.478-7.785-14.524-11.221-16.493-11.217-28.388-23.817-15.4-45.079a7.18,7.18,0,0,0,.872-4.46c-4.34-28.854,13.472-37.326,37.109-40.582,3.777-.521,7.481-1.587,11.244-2.223C-230.939-8.641-225.483-3.844-226.793,33.1Z" transform="translate(224.838 301.654)" fill="#f5f5f5"/>
    <path id="Path_49" data-name="Path 49" d="M-288.1,88.642c-45.134.06-48.515-5.3-34.882-44.17,4.889-13.947,12.005-22.263,27.765-22.461,7.426-.1,15.635-1.785,22.037-5.355,12.766-7.121,21.645-3.934,29.647,6.978,5.442,7.421,11.576,14.33,17.065,21.719,10.723,14.454,9.778,19.436-6.471,28.747C-251.28,84.607-270.96,90.487-288.1,88.642Z" transform="translate(158.858 368.273)" fill="#f5f5f5"/>
    <path id="Path_50" data-name="Path 50" d="M-346.17,31.6c.268-29.186,8.625-35.255,31.708-28.323,13.583,4.077,26.16,8.486,27.05,26.317.281,5.613,4.349,11.286,7.472,16.456,4.6,7.61,14.519,14.4,8.638,24.172a179.512,179.512,0,0,1-26.6,33.706c-2.02,2.029-13.232-1.605-17.217-5.608A106.392,106.392,0,0,1-346.17,31.6Z" transform="translate(100.584 324.291)" fill="#f5f5f5"/>
    <path id="Path_51" data-name="Path 51" d="M-282.413,20.038c.392,10.184-12.7,23.577-23.508,24.062-10.613.475-34.227-17.051-34.974-25.957C-341.748,8-318.614-11.292-304.487-12.219-293.035-12.975-283.128,1.5-282.413,20.038Z" transform="translate(119.555 277.61)" fill="#f5f5f5"/>
  </g>
</svg>
