<?xml version="1.0" encoding="utf-8"?>
<!-- Generator: Adobe Illustrator 26.1.0, SVG Export Plug-In . SVG Version: 6.00 Build 0)  -->
<svg version="1.1" id="Warstwa_1" xmlns="http://www.w3.org/2000/svg" xmlns:xlink="http://www.w3.org/1999/xlink" x="0px" y="0px"
	 viewBox="0 0 265.4 123" style="enable-background:new 0 0 265.4 123;" xml:space="preserve">
<style type="text/css">
	.st0{enable-background:new    ;}
	.st1{fill:#93C021;}
</style>
<g id="a">
</g>
<g id="Group_115" transform="translate(-242 -35)">
	<g class="st0">
		<path d="M356,74.8l2.5-0.7c0.1,2.2,0.7,4.3,2.9,4.3c1.4,0,2.2-0.8,2.2-2.4c0-1.8-0.9-2.8-2.2-3.9l-3.4-3c-1.3-1.2-1.9-2.4-1.9-4.5
			c0-3,1.8-4.7,4.7-4.7c3.2,0,4.8,1.7,5.1,5.2l-2.4,0.6c-0.2-2-0.6-3.7-2.7-3.7c-1.4,0-2.2,0.7-2.2,2.2c0,1.2,0.4,1.9,1.3,2.8l3.4,3
			c1.5,1.3,2.9,3.1,2.9,5.7c0,3-2,4.8-4.8,4.8C357.8,80.7,356.2,78.3,356,74.8z"/>
		<path d="M369.9,62.4h-3.4v-2.1h9.6v2.1h-3.3v18.1h-2.8V62.4z"/>
		<path d="M376.9,74.2v-7.7c0-4,1.4-6.4,5.5-6.4c4.1,0,5.5,2.4,5.5,6.4v7.7c0,4-1.5,6.5-5.5,6.5C378.3,80.7,376.9,78.2,376.9,74.2z
			 M385.1,74.8v-8.9c0-2.2-0.4-3.6-2.7-3.6c-2.3,0-2.7,1.4-2.7,3.6v8.9c0,2.2,0.4,3.7,2.7,3.7C384.7,78.5,385.1,77,385.1,74.8z"/>
		<path d="M389.3,60.3h2.3l2.2,14.5l2.7-14.5h2l2.7,14.5l2.1-14.6h2.3l-3.2,20.2h-2l-2.8-15l-2.8,15h-2.2L389.3,60.3z"/>
		<path d="M409.9,60.3h2.7l4.3,20.2h-2.7l-0.9-5.1h-4.1l-1,5.1h-2.6L409.9,60.3z M413,73.4l-1.7-9.1l-1.7,9.1H413z"/>
		<path d="M418.2,60.3h4.1c4,0,5.9,1.5,5.9,5.4c0,2.4-0.7,4.1-2.5,4.7l2.9,10.1h-2.7l-2.6-9.5h-2.2v9.5h-2.8V60.3z M422.1,69
			c2.4,0,3.4-0.8,3.4-3.3c0-2.4-0.7-3.3-3.2-3.3h-1.2V69H422.1z"/>
		<path d="M429.8,78.5l5.9-16.2h-5.6v-2h8.6v1.2l-6.3,17h6.3v2h-8.9V78.5z"/>
		<path d="M443.2,73.4l-4.4-13.1h2.6l3.1,9.8l3-9.8h2.6l-4.3,13.1v7.1h-2.7V73.4z"/>
		<path d="M450.8,74.8l2.5-0.7c0.1,2.2,0.7,4.3,2.9,4.3c1.4,0,2.2-0.8,2.2-2.4c0-1.8-0.9-2.8-2.2-3.9l-3.4-3
			c-1.3-1.2-1.9-2.4-1.9-4.5c0-3,1.8-4.7,4.7-4.7c3.2,0,4.8,1.7,5.1,5.2l-2.4,0.6c-0.2-2-0.6-3.7-2.7-3.7c-1.4,0-2.2,0.7-2.2,2.2
			c0,1.2,0.4,1.9,1.3,2.8l3.4,3c1.5,1.3,2.9,3.1,2.9,5.7c0,3-2,4.8-4.8,4.8C452.7,80.7,451,78.3,450.8,74.8z"/>
		<path d="M461.9,78.5l5.9-16.2h-5.6v-2h8.6v1.2l-6.3,17h6.3v2h-8.9V78.5z"/>
		<path d="M472.2,60.3h7.8v2.1h-5v6.7h4.1v2H475v7.4h5.1v2h-7.9V60.3z"/>
		<path d="M481.6,60.3h1.9l5.7,13.4V60.3h2.3v20.2h-1.8L484,66.7v13.8h-2.4V60.3z"/>
		<path d="M494.2,60.3h2.8v20.2h-2.8V60.3z"/>
		<path d="M499.5,60.3h7.8v2.1h-5v6.7h4.1v2h-4.1v7.4h5.1v2h-7.9V60.3z"/>
	</g>
	<g class="st0">
		<path d="M356.6,85.3h5c3.6,0,5,2.1,5,5.6c0,3.2-1.7,5.2-5,5.2h-2.2v9.4h-2.8V85.3z M360.7,94.1c2.4,0,3.2-0.7,3.2-3.2
			c0-2.9-0.4-3.6-3.2-3.6h-1.3v6.8H360.7z"/>
		<path d="M367.8,85.3h4.1c4,0,5.9,1.5,5.9,5.4c0,2.4-0.7,4.1-2.5,4.7l2.9,10.1h-2.7l-2.6-9.5h-2.2v9.5h-2.8V85.3z M371.7,94
			c2.4,0,3.4-0.8,3.4-3.3c0-2.4-0.6-3.3-3.2-3.3h-1.2V94H371.7z"/>
		<path d="M379.4,103.5l5.9-16.2h-5.6v-2h8.6v1.2l-6.3,17h6.3v2h-8.9V103.5z"/>
		<path d="M389.7,85.3h7.8v2.1h-5v6.7h4.1v2h-4.1v7.4h5.1v2h-7.9V85.3z"/>
		<path d="M399.5,85.3h2.8l3.6,16.4l3.6-16.4h2.7l0.4,20.2h-2.3L410,90.8l-3.4,14.7H405l-3.4-14.7l-0.2,14.7h-2.3L399.5,85.3z"/>
		<path d="M418,98.4l-4.4-13.1h2.6l3.1,9.8l3-9.8h2.6l-4.3,13.1v7.1H418V98.4z"/>
		<path d="M425.6,99.8l2.5-0.7c0.2,2.2,0.7,4.3,2.9,4.3c1.4,0,2.2-0.8,2.2-2.4c0-1.8-0.9-2.8-2.2-3.9l-3.4-3
			c-1.3-1.2-1.9-2.4-1.9-4.5c0-3,1.8-4.7,4.7-4.7c3.2,0,4.8,1.7,5.1,5.2l-2.4,0.6c-0.2-2-0.6-3.7-2.7-3.7c-1.4,0-2.2,0.7-2.2,2.2
			c0,1.2,0.4,1.9,1.3,2.8l3.4,3c1.5,1.3,2.9,3.1,2.9,5.7c0,3-2,4.8-4.8,4.8C427.4,105.7,425.8,103.3,425.6,99.8z"/>
		<path d="M437.3,96.1l-1.7,1v-2.2l1.7-1v-8.6h2.8v7.1l2.6-1.4v2.1l-2.6,1.5v9h5.2v2h-8V96.1z"/>
		<path d="M446.3,98.7V85.3h2.7v13.5c0,2.6,0.3,4.7,2.7,4.7c2.4,0,2.7-2.1,2.7-4.7V85.3h2.7v13.4c0,4.2-1,7-5.4,7
			C447.2,105.7,446.3,102.9,446.3,98.7z"/>
	</g>
	<g class="st0">
		<path d="M355.9,110.3h2.3l2.2,14.5l2.7-14.5h2l2.8,14.5l2.1-14.6h2.3l-3.2,20.2h-2l-2.8-15l-2.8,15h-2.1L355.9,110.3z"/>
		<path d="M376.5,110.3h2.7l4.3,20.2h-2.7l-0.9-5.1h-4.1l-1,5.1h-2.6L376.5,110.3z M379.6,123.4l-1.7-9.1l-1.7,9.1H379.6z"/>
		<path d="M384.9,110.3h5c3.6,0,5,2.1,5,5.6c0,3.2-1.7,5.2-5,5.2h-2.2v9.4h-2.8V110.3z M389,119.1c2.4,0,3.2-0.7,3.2-3.2
			c0-2.9-0.4-3.6-3.2-3.6h-1.3v6.8H389z"/>
		<path d="M396.3,110.3h2.8v20.2h-2.8V110.3z"/>
		<path d="M401.6,110.3h7.8v2.1h-5v6.7h4.1v2h-4.1v7.4h5.1v2h-7.9V110.3z"/>
		<path d="M411,110.3h1.9l5.7,13.4v-13.4h2.3v20.2h-1.8l-5.8-13.8v13.8H411V110.3z"/>
		<path d="M423.4,110.3h1.9l5.7,13.4v-13.4h2.3v20.2h-1.8l-5.8-13.8v13.8h-2.4V110.3z"/>
		<path d="M436,110.3h2.8v20.2H436V110.3z"/>
		<path d="M441,124v-7.1c0-4.1,1.2-6.8,5.4-6.8c3.8,0,5.1,2.2,5.1,5.8v1.6h-2.7v-1.4c0-2.2,0-3.8-2.4-3.8c-2.4,0-2.6,1.6-2.6,4.1v8
			c0,3,0.7,4,2.6,4c2.3,0,2.4-1.6,2.4-4V123h2.7v1.5c0,3.7-1.1,6.2-5.1,6.2C442.1,130.7,441,127.8,441,124z"/>
		<path d="M452.8,128.5l5.9-16.2h-5.6v-2h8.6v1.2l-6.3,17h6.3v2h-8.9V128.5z"/>
		<path d="M463.1,110.3h7.8v2.1h-5v6.7h4.1v2H466v7.4h5.1v2h-7.9V110.3z"/>
		<path d="M472.2,123.9v-6.8c0-4.4,1.2-7,5.4-7c3.8,0,5.3,1.9,5.3,5.9v0.8h-2.6v-0.6c0-2.6-0.3-3.8-2.6-3.8c-2.5,0-2.6,1.9-2.6,4.4
			v7.5c0,2.9,0.5,4.3,2.7,4.3c2.2,0,2.7-1.6,2.7-4.6v-1.4h-2.6v-2h5.1v10h-1.8l-0.3-2.3c-0.5,1.5-1.6,2.6-3.6,2.6
			C473.6,130.7,472.2,128.2,472.2,123.9z"/>
		<path d="M484.8,124.2v-7.7c0-4,1.5-6.4,5.5-6.4c4.1,0,5.5,2.4,5.5,6.4v7.7c0,4-1.4,6.5-5.5,6.5
			C486.2,130.7,484.8,128.2,484.8,124.2z M493,124.8v-8.9c0-2.2-0.4-3.6-2.7-3.6c-2.3,0-2.7,1.4-2.7,3.6v8.9c0,2.2,0.4,3.7,2.7,3.7
			C492.6,128.5,493,127,493,124.8z"/>
	</g>
	<g id="Group_114" transform="translate(616.016 124.102)">
		<path id="Path_34" class="st1" d="M-332.5-89.1c1.4,0.5,2.7,1,4.1,1.5c1.8,0.6,2.5,1.8,2.1,3.7c-2.1,8.5-4.1,17.1-6.2,25.6
			c-0.8,3.1-1.7,3.7-4.8,3.4c-1.1-0.1-2.1-0.2-3.2-0.3c-4.5-0.2-4.7-0.5-4.9-4.8c-0.4-7.8-1-15.7-1.4-23.5c-0.1-1.9,0-3.7,0-5.6
			L-332.5-89.1z"/>
		<path id="Path_35" class="st1" d="M-330.9,33.9c-2.3-1.3-3-3.2-2.7-5.9c0.6-4.4,0.7-9,1-13.5c0.3-3.6,0.9-4.2,4.5-4.8
			c1.3-0.2,2.6-0.5,3.8-0.9c2.3-0.9,3.6,0,4.4,2c2.2,5.6,4.3,11.1,6.3,16.7c0.7,1.8,0,3.1-1.9,3.6c-1.8,0.5-3.6,0.9-5.4,1.4
			c-1.8,0.4-3.5,0.9-5.3,1.4L-330.9,33.9z"/>
		<path id="Path_36" class="st1" d="M-374-14.8c0.5-1.6,1.1-3.2,1.6-4.9c0.8-2.6,1.8-3.4,4.4-2.6c3.8,1.1,7.6,2.4,11.3,3.9
			c4.8,2.1,1.4,6.7,2.4,10c0.6,2.1-1.7,2.6-3.4,3c-3.2,0.8-6.5,1.6-9.6,2.6c-2.9,0.9-5.2,0.5-6.6-2.5L-374-14.8z"/>
		<path id="Path_37" class="st1" d="M-303.6-75.5c-0.6,1.2-1,2-1.5,2.8c-4.5,6.7-9.1,13.4-13.6,20.1c-1.8,2.6-2.4,2.7-5.3,1.4
			c-1.6-0.7-3.1-1.4-4.7-2c-2.2-0.8-2.6-2.3-1.9-4.4c2.6-8.1,5.1-16.2,7.7-24.3c1-3,2.3-3.7,5.1-2.3c4.1,2,8,4.2,11.9,6.4
			C-305.1-77.2-304.3-76.4-303.6-75.5z"/>
		<path id="Path_38" class="st1" d="M-309.7-41.1c-1.9,0.1-8.7-6.4-8.5-8c0.2-0.9,0.6-1.7,1.2-2.4c4.7-6.1,9.5-12.1,14.3-18.2
			c2.6-3.3,3.5-3.4,6.3-0.5c2.9,3,5.7,6.2,8.4,9.6c1.8,2.2,1.6,3.5-0.6,5c-6.5,4.6-13,9.1-19.6,13.7
			C-308.7-41.6-309.2-41.3-309.7-41.1z"/>
		<path id="Path_39" class="st1" d="M-302.5-28c-0.7-0.5-2-1-2.6-2c-1.2-2.1-2.2-4.2-3.1-6.4c-0.8-1.6-0.2-2.8,1.2-3.7
			c6.8-4.1,13.6-8.2,20.4-12.3c1.8-1.1,3.4-0.6,4.2,1.3c1.9,4.7,3.6,9.3,5.3,14.1c0.7,1.9-0.8,2.7-2.2,3.1c-2.3,0.7-4.6,1.3-6.9,1.8
			C-291.4-30.7-296.6-29.5-302.5-28z"/>
		<path id="Path_40" class="st1" d="M-276.3-12c-0.5,2.5-1.5,3.2-4,2.7c-6.9-1.5-13.7-3.1-20.5-4.6c-0.4-0.1-0.8-0.2-1.1-0.5
			c-3.2-2.6-1.1-6.2-1.6-9.3c-0.4-2.2,2.1-2.7,3.9-3c4.4-0.7,8.9-1.3,13.4-1.9c2.1-0.3,4.2-0.8,6.3-1.1c3.1-0.5,4.4,0.4,4.8,3.6
			c0.1,1.3,0.1,2.6,0,4C-275.3-18.8-275.7-15.4-276.3-12z"/>
		<path id="Path_41" class="st1" d="M-302.5-12.3c1.8,0.5,3.3,0.9,4.8,1.4c4.9,1.5,9.8,3.1,14.8,4.7c4.2,1.3,4.9,2.5,2.9,6.3
			c-1.9,3.8-4.1,7.4-6.4,11c-1.6,2.5-2.5,2.6-4.9,0.8c-4.9-3.8-9.8-7.7-14.6-11.6c-0.3-0.2-0.6-0.5-0.9-0.8c-1.3-1.1-1.4-3-0.4-4.2
			c0,0,0-0.1,0.1-0.1C-305.4-7.3-305.8-11-302.5-12.3z"/>
		<path id="Path_42" class="st1" d="M-308,28.1c-0.6-0.5-1.6-1.1-2-1.9c-2.8-5.6-5.4-11.2-8.1-16.9c-0.7-1.2-0.3-2.8,0.8-3.6
			c1.9-1.5,3.7-3,5.6-4.5c1-1,2.6-1.1,3.6-0.1c0.1,0.1,0.2,0.2,0.2,0.3c4.7,4.5,9.4,9,14.2,13.5c1.2,1.2,1.7,2.6,0.2,3.8
			c-4.3,3.1-8.6,6.1-13,9.1C-306.9,27.9-307.5,28.1-308,28.1z"/>
		<path id="Path_43" class="st1" d="M-334.1,12c-1.1,6.2-2.1,11.7-3.2,17.2c-0.4,2.1-1.9,2.8-3.9,2.2c-5-1.3-9.7-3.6-13.8-6.8
			c-1.6-1.2-1.6-2.5-0.4-4.1c3-4,6-8.1,9-12.1c1.2-1.6,2.5-2.2,4.4-1.2c1.9,0.9,4,1.5,5.8,2.5C-335.3,10.3-334.6,11.1-334.1,12z"/>
		<path id="Path_44" class="st1" d="M-346.8,5c-0.3,0.7-0.6,1.3-1.1,1.9c-3.5,3.8-7.1,7.5-10.6,11.3c-1.2,1.3-2.7,1.5-3.7-0.1
			c-2.9-4.3-5.7-8.6-8.3-13c-0.7-1.1-0.4-2.5,0.6-3.3c0.2-0.1,0.5-0.3,0.7-0.3c4.7-1.8,9.4-3.7,14.1-5.3c1-0.2,2,0.1,2.7,0.8
			c1.8,2.1,3.4,4.4,5,6.6C-347.1,4.1-347,4.5-346.8,5z"/>
		<path id="Path_45" class="st1" d="M-346.6-28.4c-0.2,0.5-0.4,1-0.7,1.5c-1.6,2.1-3.3,4.1-5.1,6c-0.9,0.7-2.1,0.9-3.2,0.6
			c-3.6-1.6-7.2-3.4-10.6-5.3c-2.4-1.3-2.7-2.4-1.1-4.8c2.6-4,6-7.5,10-10c2.2-1.4,3.2-1.1,4.6,1.1c1.8,2.9,3.5,5.9,5.2,8.9
			C-347.2-29.9-346.9-29.2-346.6-28.4z"/>
		<path id="Path_46" class="st1" d="M-338.8-46.4c1.8,0.1,3.7,0.1,5.5,0.3c3,0.5,3.8,1.8,3.1,4.6c-0.7,2.7-1.4,5.4-2.4,8
			c-0.4,1-1.2,2.5-2.1,2.7c-3,0.6-6,0.9-9,0.9c-0.6,0-1.5-1-1.8-1.8c-1.4-3.1-2.7-6.3-4.1-9.5c-0.9-2-0.4-3.4,1.7-3.9
			C-344.8-45.6-341.8-46.1-338.8-46.4z"/>
		<path id="Path_47" class="st1" d="M-311.7-28.2c-0.5,0.5-1,1.4-1.7,1.8c-2.6,1.3-5.3,2.4-8,3.5c-1.4,0.6-3,0.1-3.9-1.1
			c-1.4-1.6-3.2-2.8-4.5-4.5c-0.7-0.9-1.3-2.5-0.9-3.4c1.3-2.9,2.7-5.8,4.2-8.5c0.5-1.3,1.9-2,3.2-1.5c0.3,0.1,0.6,0.3,0.8,0.5
			c4.4,3,8,7.1,10.3,11.9C-312-29.2-311.8-28.7-311.7-28.2z"/>
		<path id="Path_48" class="st1" d="M-309.6-15.7c-0.3,3.8-1.6,7.4-3.8,10.5c-1.7,2.5-2.5,2.6-4.8,0.9c-0.9-0.6-1.6-1.3-2.5-1.9
			c-2.9-1.9-4.9-4.1-2.7-7.8c0.1-0.2,0.2-0.5,0.2-0.8c-0.8-5,2.3-6.5,6.4-7c0.7-0.1,1.3-0.3,1.9-0.4
			C-310.3-22.9-309.3-22.1-309.6-15.7z"/>
		<path id="Path_49" class="st1" d="M-331.6,5.5c-7.8,0-8.4-0.9-6-7.6c0.8-2.4,2.1-3.9,4.8-3.9c1.3,0,2.6-0.3,3.8-0.9
			c2.2-1.2,3.7-0.7,5.1,1.2c0.9,1.3,2,2.5,3,3.8c1.9,2.5,1.7,3.4-1.1,5C-325.2,4.8-328.7,5.8-331.6,5.5z"/>
		<path id="Path_50" class="st1" d="M-351.8-12c0-5.1,1.5-6.1,5.5-4.9c2.4,0.7,4.5,1.5,4.7,4.6c0.2,1,0.6,2,1.3,2.8
			c0.8,1.3,2.5,2.5,1.5,4.2c-1.3,2.1-2.8,4.1-4.6,5.8c-0.4,0.4-2.3-0.3-3-1C-349.5-3.6-351.4-7.7-351.8-12z"/>
		<path id="Path_51" class="st1" d="M-337.4-22.1c0.1,1.8-2.2,4.1-4.1,4.2c-1.8,0.1-5.9-3-6.1-4.5c-0.1-1.8,3.9-5.1,6.3-5.3
			C-339.3-27.8-337.6-25.3-337.4-22.1z"/>
	</g>
</g>
</svg>
